<?xml version="1.0" encoding="UTF-8" standalone="no"?>
<!DOCTYPE svg PUBLIC "-//W3C//DTD SVG 1.1//EN" "http://www.w3.org/Graphics/SVG/1.1/DTD/svg11.dtd">
<svg version="1.1" xmlns="http://www.w3.org/2000/svg" xmlns:xlink="http://www.w3.org/1999/xlink" preserveAspectRatio="xMidYMid meet" viewBox="210.09947214497703 98.63761615877485 178.28682832200565 248.24505864640292" width="178.29" height="248.25"><defs><path d="M211.22 324.24L212.17 300.06L233.19 314.1L254.22 328.14L232.24 338.28C222.76 342.66 216.83 345.4 214.46 346.49C212.54 347.38 210.37 345.92 210.45 343.81C210.55 341.2 210.81 334.68 211.22 324.24Z" id="aZz6RnTlr"></path><path d="M380.69 119.77C385.54 123.01 386.84 129.57 383.6 134.42C366.35 160.25 323.22 224.82 254.22 328.14L212.17 300.06C280.35 197.98 322.96 134.18 340 108.67C344.1 102.53 352.4 100.88 358.54 104.98C364.72 109.11 374.03 115.33 380.69 119.77Z" id="a3z5mEyqX"></path><path d="M216.71 345.28C215.61 346.93 213.36 347.38 211.7 346.27C210.05 345.17 209.6 342.92 210.71 341.27C211.81 339.61 212.78 341.07 214.44 342.18C216.1 343.29 217.82 343.62 216.71 345.28Z" id="aOpjpE6pl"></path><path d="M387.14 124.08C388.43 124.94 388.77 126.68 387.91 127.97C385.81 131.11 380.56 138.98 372.15 151.57L330.1 123.49C338.51 110.9 343.77 103.03 345.87 99.88C346.73 98.6 348.47 98.25 349.75 99.11C357.7 104.41 379.2 118.78 387.14 124.08Z" id="c2EtZLbAK4"></path></defs><g><g><g><use xlink:href="#aZz6RnTlr" opacity="1" fill="#ffac21" fill-opacity="1"></use></g><g><use xlink:href="#a3z5mEyqX" opacity="1" fill="#ff6000" fill-opacity="1"></use></g><g><use xlink:href="#aOpjpE6pl" opacity="1" fill="#000000" fill-opacity="1"></use></g><g><use xlink:href="#c2EtZLbAK4" opacity="1" fill="#332713" fill-opacity="1"></use></g></g></g></svg>